# xmcd CD database file
#
# Track frame offsets:
#	150
#	15844
#	29520
#	49353
#	69002
#	87122
#	99340
#	118433
#	135660
#
# Disc length: 1962 seconds
#
# Revision: 0
# Processed by: cddbd v1.5.2PL0 Copyright (c) Steve Scherf et al.
# Submitted via: CDex 1.70beta2
#
DISCID=6d07a809
DTITLE=Bateau-Feu Trio - Bateau-Feu Trio
DYEAR=2007
DGENRE=Jazz
TTITLE0=Stadscoupletten (Wannes van de Velde)
TTITLE1=Nostalgie in de Geuzenstraat (Dirk Vanthillo)
TTITLE2=Round About Midninght (T. Monk)
TTITLE3=Mack The Knife (B. Brecht-K. Weill)
TTITLE4=Sous le ciel de Paris (H. Graud-J. Dréjac)
TTITLE5=Topsy (W. Basie-E. Durham)
TTITLE6=After You've Gone (H. Creames-T. Layton)
TTITLE7=Le pirate (D. Givone)
TTITLE8=Cactussong (Willem van Looveren)
EXTD=YEAR: 2007
EXTT0=
EXTT1=
EXTT2=
EXTT3=
EXTT4=
EXTT5=
EXTT6=
EXTT7=
EXTT8=
PLAYORDER=
